<?xml version="1.0" ?>
<svg id="object" viewBox="0 0 32 32" xmlns="http://www.w3.org/2000/svg">
  <title />
  <path fill="currentColor" d="M7,21v2a2,2,0,0,0,4,0V19a2,2,0,0,0-4,0Z"/>
  <path fill="currentColor" d="M23,17a2,2,0,0,0-2,2v4a2,2,0,0,0,4,0V19A2,2,0,0,0,23,17Z"/>
  <path fill="currentColor" d="M26,1H6A5,5,0,0,0,1,6V26a5,5,0,0,0,5,5H26a5,5,0,0,0,5-5V6A5,5,0,0,0,26,1Zm1,18v4a4,4,0,0,1-8,0V19a4,4,0,0,1,4-4,4,4,0,0,1,2,.54,9,9,0,0,0-18,0A4,4,0,0,1,9,15a4,4,0,0,1,4,4v4a4,4,0,0,1-8,0V16a11,11,0,0,1,22,0Z"/>
</svg>
